<svg id="レイヤー_1" data-name="レイヤー 1" xmlns="http://www.w3.org/2000/svg" viewBox="0 0 94.85 89.45"><defs><style>.cls-1{fill:#fff}</style></defs><title>ashiras_logo</title><path class="cls-1" d="M5.57 69.45l5.57 19.77h-2.4L7.9 86H3.24l-.83 3.19H0zm1.77 14.46L6.06 79l-.49-2.29L5.09 79l-1.3 4.95zM17.16 86.34a10.73 10.73 0 0 0 1.23.63 3.54 3.54 0 0 0 1.41.28 3.07 3.07 0 0 0 .9-.13 2.1 2.1 0 0 0 .76-.41A2 2 0 0 0 22 86a2.46 2.46 0 0 0 .19-1 3.47 3.47 0 0 0-.1-.82 4.63 4.63 0 0 0-.34-.91 9.46 9.46 0 0 0-.61-1.07q-.38-.58-.95-1.29l-1.55-2a14.37 14.37 0 0 1-1-1.4 9.43 9.43 0 0 1-.64-1.24 6.37 6.37 0 0 1-.37-1.17 5.48 5.48 0 0 1-.11-1.1 4.69 4.69 0 0 1 .29-1.67 3.74 3.74 0 0 1 .83-1.33 3.87 3.87 0 0 1 1.36-.87 4.81 4.81 0 0 1 1.79-.31 6.32 6.32 0 0 1 1.6.21 6.11 6.11 0 0 1 1.61.67l-1 1.87a5.78 5.78 0 0 0-.91-.44 3 3 0 0 0-1.09-.19 2.2 2.2 0 0 0-1.58.56 2.08 2.08 0 0 0-.59 1.58 2.84 2.84 0 0 0 .06.57 3.33 3.33 0 0 0 .21.64 6.16 6.16 0 0 0 .41.77q.26.42.66 1l2.25 3q.43.58.82 1.13a8.08 8.08 0 0 1 .66 1.12 6.46 6.46 0 0 1 .44 1.2 5.49 5.49 0 0 1 .16 1.37 5.14 5.14 0 0 1-.35 1.94 4.18 4.18 0 0 1-1 1.46 4.24 4.24 0 0 1-1.49.92 5.38 5.38 0 0 1-1.88.32 6.5 6.5 0 0 1-2-.31 6.37 6.37 0 0 1-1.66-.79zM31.28 70h2.24v10.68h4.23V70H40v19.22h-2.26V82.8h-4.22v6.42h-2.24zM47.47 70h2.24v19.22h-2.24zM57.29 69.8a11.23 11.23 0 0 1 3.59.36 6.49 6.49 0 0 1 2.53 1.33 5.5 5.5 0 0 1 1.49 2.15 7.65 7.65 0 0 1 .49 2.81 7.48 7.48 0 0 1-.65 3.19 5.4 5.4 0 0 1-2 2.28l3.34 7.31h-2.52l-2.75-6.47a8.7 8.7 0 0 1-1.28.25v6.21h-2.24zm2.24 10.93a4.51 4.51 0 0 0 1.47-.36 3.2 3.2 0 0 0 1.12-.82 3.86 3.86 0 0 0 .73-1.31 6.2 6.2 0 0 0 0-3.59 3.86 3.86 0 0 0-.73-1.31 3.21 3.21 0 0 0-1.12-.82 4.51 4.51 0 0 0-1.42-.36zM75.92 69.45l5.58 19.77h-2.41L78.25 86h-4.66l-.83 3.19h-2.41zm1.77 14.46L76.41 79l-.49-2.29-.48 2.29-1.3 4.95zM87.51 86.34a10.73 10.73 0 0 0 1.23.63 3.54 3.54 0 0 0 1.41.28 3.07 3.07 0 0 0 .9-.13 2.1 2.1 0 0 0 .76-.41 2 2 0 0 0 .52-.7 2.46 2.46 0 0 0 .19-1 3.47 3.47 0 0 0-.1-.82 4.63 4.63 0 0 0-.34-.91 9.46 9.46 0 0 0-.61-1.07q-.38-.58-.95-1.29l-1.55-2a14.37 14.37 0 0 1-1-1.4 9.43 9.43 0 0 1-.66-1.27A6.37 6.37 0 0 1 87 75.1a5.48 5.48 0 0 1-.11-1.1 4.69 4.69 0 0 1 .29-1.67A3.74 3.74 0 0 1 88 71a3.87 3.87 0 0 1 1.34-.87 4.81 4.81 0 0 1 1.79-.31 6.32 6.32 0 0 1 1.6.21 6.11 6.11 0 0 1 1.58.67l-1 1.87a5.78 5.78 0 0 0-.91-.44 3 3 0 0 0-1.08-.19 2.2 2.2 0 0 0-1.58.56 2.08 2.08 0 0 0-.59 1.58 2.84 2.84 0 0 0 .06.57 3.33 3.33 0 0 0 .21.64 6.16 6.16 0 0 0 .41.77q.26.42.66 1l2.25 3q.43.58.82 1.13a8.08 8.08 0 0 1 .66 1.12 6.46 6.46 0 0 1 .44 1.2 5.49 5.49 0 0 1 .16 1.37 5.14 5.14 0 0 1-.35 1.94 4.18 4.18 0 0 1-1 1.46 4.24 4.24 0 0 1-1.49.92 5.38 5.38 0 0 1-1.88.32 6.5 6.5 0 0 1-2-.31 6.37 6.37 0 0 1-1.66-.79zM21.61 55.81h-4.18c0-11.1 7.79-19.8 20.46-23V23C25.22 19.8 17.43 11.1 17.43 0h4.19c0 11.33 9.71 17.39 18.79 19.29l1.67.35v16.53l-1.67.35c-9.09 1.9-18.8 7.96-18.8 19.29zM77.43 55.81h-4.19c0-11.33-9.71-17.4-18.79-19.29l-1.67-.35V19.64l1.67-.35c9.09-1.9 18.79-8 18.79-19.29h4.19c0 11.1-7.79 19.8-20.46 23v9.8C69.64 36 77.43 44.71 77.43 55.81z"/></svg>